<?xml version="1.0" encoding="UTF-8" standalone="no"?>
<!DOCTYPE svg PUBLIC "-//W3C//DTD SVG 1.1//EN"
 "http://www.w3.org/Graphics/SVG/1.1/DTD/svg11.dtd">
<!-- Generated by graphviz version 2.43.0 (0)
 -->
<!-- Title: dependencies Pages: 1 -->
<svg width="1984pt" height="603pt"
 viewBox="0.00 0.00 1983.50 603.00" xmlns="http://www.w3.org/2000/svg" xmlns:xlink="http://www.w3.org/1999/xlink">
<g id="graph0" class="graph" transform="scale(1 1) rotate(0) translate(4 599)">
<title>dependencies</title>
<polygon fill="white" stroke="transparent" points="-4,4 -4,-599 1979.5,-599 1979.5,4 -4,4"/>
<!-- ec2_order_api -->
<g id="node1" class="node">
<title>ec2_order_api</title>
<polygon fill="orange" stroke="black" points="1185,-506 1074,-506 1074,-468 1185,-468 1185,-506"/>
<text text-anchor="middle" x="1129.5" y="-490.8" font-family="Times,serif" font-size="14.00">EC2</text>
<text text-anchor="middle" x="1129.5" y="-475.8" font-family="Times,serif" font-size="14.00">ec2&#45;order&#45;api</text>
</g>
<!-- dynamodb_orders -->
<g id="node6" class="node">
<title>dynamodb_orders</title>
<polygon fill="green" stroke="black" points="520.5,-216 378.5,-216 378.5,-178 520.5,-178 520.5,-216"/>
<text text-anchor="middle" x="449.5" y="-200.8" font-family="Times,serif" font-size="14.00">DynamoDB</text>
<text text-anchor="middle" x="449.5" y="-185.8" font-family="Times,serif" font-size="14.00">dynamodb&#45;orders</text>
</g>
<!-- ec2_order_api&#45;&gt;dynamodb_orders -->
<g id="edge1" class="edge">
<title>ec2_order_api&#45;&gt;dynamodb_orders</title>
<path fill="none" stroke="blue" d="M1073.98,-479.2C947.74,-462.89 643.61,-418.6 559.5,-361 509.94,-327.06 476.54,-262.77 460.5,-225.89"/>
<polygon fill="blue" stroke="blue" points="463.55,-224.11 456.44,-216.26 457.1,-226.83 463.55,-224.11"/>
<text text-anchor="middle" x="598.5" y="-338.3" font-family="Times,serif" font-size="14.00">api_call (9)</text>
</g>
<!-- sqs_order_fulfillment -->
<g id="node8" class="node">
<title>sqs_order_fulfillment</title>
<polygon fill="yellow" stroke="black" points="1114.5,-417 952.5,-417 952.5,-379 1114.5,-379 1114.5,-417"/>
<text text-anchor="middle" x="1033.5" y="-401.8" font-family="Times,serif" font-size="14.00">SQS</text>
<text text-anchor="middle" x="1033.5" y="-386.8" font-family="Times,serif" font-size="14.00">sqs&#45;order&#45;fulfillment</text>
</g>
<!-- ec2_order_api&#45;&gt;sqs_order_fulfillment -->
<g id="edge2" class="edge">
<title>ec2_order_api&#45;&gt;sqs_order_fulfillment</title>
<path fill="none" stroke="blue" d="M1095.46,-467.83C1087.18,-462.63 1078.66,-456.57 1071.5,-450 1063.77,-442.9 1056.55,-434.05 1050.52,-425.72"/>
<polygon fill="blue" stroke="blue" points="1053.27,-423.55 1044.69,-417.33 1047.52,-427.54 1053.27,-423.55"/>
<text text-anchor="middle" x="1110.5" y="-438.8" font-family="Times,serif" font-size="14.00">api_call (8)</text>
</g>
<!-- s3_order_invoices -->
<g id="node10" class="node">
<title>s3_order_invoices</title>
<polygon fill="pink" stroke="black" points="139,-216 0,-216 0,-178 139,-178 139,-216"/>
<text text-anchor="middle" x="69.5" y="-200.8" font-family="Times,serif" font-size="14.00">S3</text>
<text text-anchor="middle" x="69.5" y="-185.8" font-family="Times,serif" font-size="14.00">s3&#45;order&#45;invoices</text>
</g>
<!-- ec2_order_api&#45;&gt;s3_order_invoices -->
<g id="edge3" class="edge">
<title>ec2_order_api&#45;&gt;s3_order_invoices</title>
<path fill="none" stroke="blue" d="M1073.74,-483.16C928.57,-474.03 529.36,-437.74 229.5,-305 184.68,-285.16 174.98,-276.63 134.5,-249 122.61,-240.88 110.04,-231.28 99.16,-222.62"/>
<polygon fill="blue" stroke="blue" points="101.2,-219.76 91.21,-216.21 96.81,-225.21 101.2,-219.76"/>
<text text-anchor="middle" x="412.5" y="-338.3" font-family="Times,serif" font-size="14.00">api_call (7)</text>
</g>
<!-- rds_postgres -->
<g id="node11" class="node">
<title>rds_postgres</title>
<polygon fill="purple" stroke="black" points="1404,-216 1297,-216 1297,-178 1404,-178 1404,-216"/>
<text text-anchor="middle" x="1350.5" y="-200.8" font-family="Times,serif" font-size="14.00">RDS</text>
<text text-anchor="middle" x="1350.5" y="-185.8" font-family="Times,serif" font-size="14.00">rds&#45;postgres</text>
</g>
<!-- ec2_order_api&#45;&gt;rds_postgres -->
<g id="edge5" class="edge">
<title>ec2_order_api&#45;&gt;rds_postgres</title>
<path fill="none" stroke="red" stroke-width="2" d="M1141.48,-467.99C1144.62,-462.44 1147.64,-456.16 1149.5,-450 1165.84,-395.79 1128.33,-370.27 1159.5,-323 1198.46,-263.92 1243.7,-291.23 1300.5,-249 1310.35,-241.68 1320.06,-232.39 1328.26,-223.75"/>
<polygon fill="red" stroke="red" stroke-width="2" points="1330.84,-226.12 1335.05,-216.4 1325.7,-221.37 1330.84,-226.12"/>
<text text-anchor="middle" x="1201" y="-338.3" font-family="Times,serif" font-size="14.00">network (9)</text>
</g>
<!-- elasticache_redis -->
<g id="node12" class="node">
<title>elasticache_redis</title>
<polygon fill="red" stroke="black" points="676,-216 539,-216 539,-178 676,-178 676,-216"/>
<text text-anchor="middle" x="607.5" y="-200.8" font-family="Times,serif" font-size="14.00">ElastiCache</text>
<text text-anchor="middle" x="607.5" y="-185.8" font-family="Times,serif" font-size="14.00">elasticache&#45;redis</text>
</g>
<!-- ec2_order_api&#45;&gt;elasticache_redis -->
<g id="edge6" class="edge">
<title>ec2_order_api&#45;&gt;elasticache_redis</title>
<path fill="none" stroke="red" stroke-width="2" d="M1077.8,-467.95C1040.26,-454.57 988.39,-435.52 943.5,-417 776.92,-348.29 672.01,-400.54 574.5,-249 569.28,-240.89 572.01,-232.06 577.67,-224.06"/>
<polygon fill="red" stroke="red" stroke-width="2" points="580.35,-226.3 584.12,-216.4 575,-221.79 580.35,-226.3"/>
<text text-anchor="middle" x="762" y="-338.3" font-family="Times,serif" font-size="14.00">network (8)</text>
</g>
<!-- secretsmanager_db_creds -->
<g id="node13" class="node">
<title>secretsmanager_db_creds</title>
<polygon fill="gray" stroke="black" points="1449,-361 1252,-361 1252,-323 1449,-323 1449,-361"/>
<text text-anchor="middle" x="1350.5" y="-345.8" font-family="Times,serif" font-size="14.00">SecretsManager</text>
<text text-anchor="middle" x="1350.5" y="-330.8" font-family="Times,serif" font-size="14.00">secretsmanager&#45;db&#45;creds</text>
</g>
<!-- ec2_order_api&#45;&gt;secretsmanager_db_creds -->
<g id="edge4" class="edge">
<title>ec2_order_api&#45;&gt;secretsmanager_db_creds</title>
<path fill="none" stroke="blue" d="M1157.43,-467.87C1164.44,-462.59 1171.63,-456.49 1177.5,-450 1202.26,-422.66 1191.09,-401.27 1220.5,-379 1227.7,-373.55 1235.68,-368.92 1244.04,-365"/>
<polygon fill="blue" stroke="blue" points="1245.46,-368.2 1253.24,-361.01 1242.67,-361.77 1245.46,-368.2"/>
<text text-anchor="middle" x="1227.5" y="-438.8" font-family="Times,serif" font-size="14.00">api_call (8)</text>
</g>
<!-- iam_order_api_role -->
<g id="node16" class="node">
<title>iam_order_api_role</title>
<polygon fill="white" stroke="black" points="1375,-417 1230,-417 1230,-379 1375,-379 1375,-417"/>
<text text-anchor="middle" x="1302.5" y="-401.8" font-family="Times,serif" font-size="14.00">IAMRole</text>
<text text-anchor="middle" x="1302.5" y="-386.8" font-family="Times,serif" font-size="14.00">iam&#45;order&#45;api&#45;role</text>
</g>
<!-- ec2_order_api&#45;&gt;iam_order_api_role -->
<g id="edge8" class="edge">
<title>ec2_order_api&#45;&gt;iam_order_api_role</title>
<path fill="none" stroke="orange" stroke-dasharray="5,2" d="M1185.29,-470.06C1188.06,-469.35 1190.81,-468.66 1193.5,-468 1231.86,-458.65 1249.89,-474.94 1280.5,-450 1287.7,-444.13 1292.6,-435.46 1295.9,-426.93"/>
<polygon fill="orange" stroke="orange" points="1299.32,-427.74 1299.1,-417.15 1292.67,-425.57 1299.32,-427.74"/>
<text text-anchor="middle" x="1335" y="-438.8" font-family="Times,serif" font-size="14.00">iam_role (9)</text>
</g>
<!-- internal_https_svc -->
<g id="node22" class="node">
<title>internal_https_svc</title>
<polygon fill="orange" stroke="black" points="1536,-417 1393,-417 1393,-379 1536,-379 1536,-417"/>
<text text-anchor="middle" x="1464.5" y="-401.8" font-family="Times,serif" font-size="14.00">EC2</text>
<text text-anchor="middle" x="1464.5" y="-386.8" font-family="Times,serif" font-size="14.00">internal&#45;https&#45;svc</text>
</g>
<!-- ec2_order_api&#45;&gt;internal_https_svc -->
<g id="edge7" class="edge">
<title>ec2_order_api&#45;&gt;internal_https_svc</title>
<path fill="none" stroke="red" stroke-width="2" d="M1185.21,-469.7C1188,-469.08 1190.78,-468.51 1193.5,-468 1276.01,-452.58 1301.91,-476.66 1381.5,-450 1399.87,-443.85 1418.41,-432.99 1433.3,-422.88"/>
<polygon fill="red" stroke="red" stroke-width="2" points="1435.43,-425.65 1441.61,-417.04 1431.42,-419.92 1435.43,-425.65"/>
<text text-anchor="middle" x="1455" y="-438.8" font-family="Times,serif" font-size="14.00">network (5)</text>
</g>
<!-- ec2_fulfillment_worker -->
<g id="node2" class="node">
<title>ec2_fulfillment_worker</title>
<polygon fill="orange" stroke="black" points="1094.5,-305 920.5,-305 920.5,-267 1094.5,-267 1094.5,-305"/>
<text text-anchor="middle" x="1007.5" y="-289.8" font-family="Times,serif" font-size="14.00">EC2</text>
<text text-anchor="middle" x="1007.5" y="-274.8" font-family="Times,serif" font-size="14.00">ec2&#45;fulfillment&#45;worker</text>
</g>
<!-- ec2_fulfillment_worker&#45;&gt;dynamodb_orders -->
<g id="edge10" class="edge">
<title>ec2_fulfillment_worker&#45;&gt;dynamodb_orders</title>
<path fill="none" stroke="blue" d="M920.34,-283.73C836.09,-281.03 705.31,-272.92 594.5,-249 562.77,-242.15 528.45,-230.29 501.17,-219.74"/>
<polygon fill="blue" stroke="blue" points="502.41,-216.46 491.83,-216.07 499.85,-222.98 502.41,-216.46"/>
<text text-anchor="middle" x="633.5" y="-237.8" font-family="Times,serif" font-size="14.00">api_call (8)</text>
</g>
<!-- dynamodb_inventory -->
<g id="node7" class="node">
<title>dynamodb_inventory</title>
<polygon fill="green" stroke="black" points="858.5,-216 694.5,-216 694.5,-178 858.5,-178 858.5,-216"/>
<text text-anchor="middle" x="776.5" y="-200.8" font-family="Times,serif" font-size="14.00">DynamoDB</text>
<text text-anchor="middle" x="776.5" y="-185.8" font-family="Times,serif" font-size="14.00">dynamodb&#45;inventory</text>
</g>
<!-- ec2_fulfillment_worker&#45;&gt;dynamodb_inventory -->
<g id="edge11" class="edge">
<title>ec2_fulfillment_worker&#45;&gt;dynamodb_inventory</title>
<path fill="none" stroke="blue" d="M944.45,-266.97C930.58,-261.98 916.24,-255.97 903.5,-249 894.06,-243.83 893.97,-239.11 884.5,-234 874.48,-228.59 863.5,-223.79 852.5,-219.6"/>
<polygon fill="blue" stroke="blue" points="853.44,-216.22 842.85,-216.08 851.04,-222.8 853.44,-216.22"/>
<text text-anchor="middle" x="942.5" y="-237.8" font-family="Times,serif" font-size="14.00">api_call (8)</text>
</g>
<!-- sns_order_notifications -->
<g id="node9" class="node">
<title>sns_order_notifications</title>
<polygon fill="yellow" stroke="black" points="1052.5,-216 876.5,-216 876.5,-178 1052.5,-178 1052.5,-216"/>
<text text-anchor="middle" x="964.5" y="-200.8" font-family="Times,serif" font-size="14.00">SNS</text>
<text text-anchor="middle" x="964.5" y="-185.8" font-family="Times,serif" font-size="14.00">sns&#45;order&#45;notifications</text>
</g>
<!-- ec2_fulfillment_worker&#45;&gt;sns_order_notifications -->
<g id="edge12" class="edge">
<title>ec2_fulfillment_worker&#45;&gt;sns_order_notifications</title>
<path fill="none" stroke="blue" d="M1000.28,-266.82C996.22,-256.97 990.89,-244.67 985.5,-234 984,-231.03 982.36,-227.96 980.68,-224.93"/>
<polygon fill="blue" stroke="blue" points="983.62,-223.02 975.62,-216.08 977.54,-226.5 983.62,-223.02"/>
<text text-anchor="middle" x="1031.5" y="-237.8" font-family="Times,serif" font-size="14.00">api_call (7)</text>
</g>
<!-- ec2_fulfillment_worker&#45;&gt;rds_postgres -->
<g id="edge13" class="edge">
<title>ec2_fulfillment_worker&#45;&gt;rds_postgres</title>
<path fill="none" stroke="red" stroke-width="2" d="M1094.67,-273.58C1125.52,-268.05 1160.09,-260.12 1190.5,-249 1203.39,-244.28 1204.75,-239.08 1217.5,-234 1244.77,-223.13 1254.77,-224.12 1287.15,-215.97"/>
<polygon fill="red" stroke="red" stroke-width="2" points="1288.12,-219.34 1296.91,-213.42 1286.35,-212.57 1288.12,-219.34"/>
<text text-anchor="middle" x="1259" y="-237.8" font-family="Times,serif" font-size="14.00">network (7)</text>
</g>
<!-- ec2_fulfillment_worker&#45;&gt;elasticache_redis -->
<g id="edge14" class="edge">
<title>ec2_fulfillment_worker&#45;&gt;elasticache_redis</title>
<path fill="none" stroke="red" stroke-width="2" d="M920.38,-279.83C881.48,-275.09 835.85,-266.08 797.5,-249 787.67,-244.62 788.28,-238.48 778.5,-234 742.84,-217.66 728.65,-223.72 686.2,-215.98"/>
<polygon fill="red" stroke="red" stroke-width="2" points="686.86,-212.54 676.37,-214.03 685.5,-219.41 686.86,-212.54"/>
<text text-anchor="middle" x="839" y="-237.8" font-family="Times,serif" font-size="14.00">network (6)</text>
</g>
<!-- iam_fulfillment_worker_role -->
<g id="node17" class="node">
<title>iam_fulfillment_worker_role</title>
<polygon fill="white" stroke="black" points="1278.5,-216 1070.5,-216 1070.5,-178 1278.5,-178 1278.5,-216"/>
<text text-anchor="middle" x="1174.5" y="-200.8" font-family="Times,serif" font-size="14.00">IAMRole</text>
<text text-anchor="middle" x="1174.5" y="-185.8" font-family="Times,serif" font-size="14.00">iam&#45;fulfillment&#45;worker&#45;role</text>
</g>
<!-- ec2_fulfillment_worker&#45;&gt;iam_fulfillment_worker_role -->
<g id="edge15" class="edge">
<title>ec2_fulfillment_worker&#45;&gt;iam_fulfillment_worker_role</title>
<path fill="none" stroke="orange" stroke-dasharray="5,2" d="M1042.1,-266.97C1067.85,-253.56 1103.18,-235.15 1130.87,-220.73"/>
<polygon fill="orange" stroke="orange" points="1132.69,-223.73 1139.94,-216 1129.46,-217.52 1132.69,-223.73"/>
<text text-anchor="middle" x="1144" y="-237.8" font-family="Times,serif" font-size="14.00">iam_role (9)</text>
</g>
<!-- ec2_reporting_svc -->
<g id="node3" class="node">
<title>ec2_reporting_svc</title>
<polygon fill="orange" stroke="black" points="380,-305 239,-305 239,-267 380,-267 380,-305"/>
<text text-anchor="middle" x="309.5" y="-289.8" font-family="Times,serif" font-size="14.00">EC2</text>
<text text-anchor="middle" x="309.5" y="-274.8" font-family="Times,serif" font-size="14.00">ec2&#45;reporting&#45;svc</text>
</g>
<!-- ec2_reporting_svc&#45;&gt;dynamodb_orders -->
<g id="edge19" class="edge">
<title>ec2_reporting_svc&#45;&gt;dynamodb_orders</title>
<path fill="none" stroke="blue" d="M327.14,-266.91C338.07,-256.37 352.8,-243.37 367.5,-234 375.2,-229.09 383.69,-224.54 392.19,-220.44"/>
<polygon fill="blue" stroke="blue" points="393.79,-223.55 401.39,-216.17 390.85,-217.2 393.79,-223.55"/>
<text text-anchor="middle" x="406.5" y="-237.8" font-family="Times,serif" font-size="14.00">api_call (7)</text>
</g>
<!-- ec2_reporting_svc&#45;&gt;s3_order_invoices -->
<g id="edge20" class="edge">
<title>ec2_reporting_svc&#45;&gt;s3_order_invoices</title>
<path fill="none" stroke="blue" d="M238.79,-269.1C217.53,-263.57 194.32,-256.77 173.5,-249 152.39,-241.12 129.83,-230.36 111.14,-220.76"/>
<polygon fill="blue" stroke="blue" points="112.51,-217.53 102.02,-216.01 109.27,-223.74 112.51,-217.53"/>
<text text-anchor="middle" x="212.5" y="-237.8" font-family="Times,serif" font-size="14.00">api_call (6)</text>
</g>
<!-- ec2_reporting_svc&#45;&gt;rds_postgres -->
<g id="edge21" class="edge">
<title>ec2_reporting_svc&#45;&gt;rds_postgres</title>
<path fill="none" stroke="red" stroke-width="2" d="M380.09,-282.7C470.35,-278.95 621.11,-269.74 672.5,-249 682.48,-244.97 681.39,-237.68 691.5,-234 751.38,-212.19 1186.95,-225.1 1286.54,-215.55"/>
<polygon fill="red" stroke="red" stroke-width="2" points="1287.24,-218.99 1296.74,-214.31 1286.39,-212.04 1287.24,-218.99"/>
<text text-anchor="middle" x="733" y="-237.8" font-family="Times,serif" font-size="14.00">network (7)</text>
</g>
<!-- iam_reporting_service_role -->
<g id="node19" class="node">
<title>iam_reporting_service_role</title>
<polygon fill="white" stroke="black" points="360,-216 157,-216 157,-178 360,-178 360,-216"/>
<text text-anchor="middle" x="258.5" y="-200.8" font-family="Times,serif" font-size="14.00">IAMRole</text>
<text text-anchor="middle" x="258.5" y="-185.8" font-family="Times,serif" font-size="14.00">iam&#45;reporting&#45;service&#45;role</text>
</g>
<!-- ec2_reporting_svc&#45;&gt;iam_reporting_service_role -->
<g id="edge22" class="edge">
<title>ec2_reporting_svc&#45;&gt;iam_reporting_service_role</title>
<path fill="none" stroke="orange" stroke-dasharray="5,2" d="M275.19,-266.91C268.91,-261.97 263.18,-256.01 259.5,-249 255.94,-242.21 254.67,-234.17 254.55,-226.51"/>
<polygon fill="orange" stroke="orange" points="258.05,-226.6 255,-216.45 251.06,-226.29 258.05,-226.6"/>
<text text-anchor="middle" x="302" y="-237.8" font-family="Times,serif" font-size="14.00">iam_role (9)</text>
</g>
<!-- lambda_send_order_email -->
<g id="node4" class="node">
<title>lambda_send_order_email</title>
<polygon fill="cyan" stroke="black" points="1061.5,-127 867.5,-127 867.5,-89 1061.5,-89 1061.5,-127"/>
<text text-anchor="middle" x="964.5" y="-111.8" font-family="Times,serif" font-size="14.00">Lambda</text>
<text text-anchor="middle" x="964.5" y="-96.8" font-family="Times,serif" font-size="14.00">lambda&#45;send&#45;order&#45;email</text>
</g>
<!-- secretsmanager_smtp_creds -->
<g id="node14" class="node">
<title>secretsmanager_smtp_creds</title>
<polygon fill="gray" stroke="black" points="955,-38 740,-38 740,0 955,0 955,-38"/>
<text text-anchor="middle" x="847.5" y="-22.8" font-family="Times,serif" font-size="14.00">SecretsManager</text>
<text text-anchor="middle" x="847.5" y="-7.8" font-family="Times,serif" font-size="14.00">secretsmanager&#45;smtp&#45;creds</text>
</g>
<!-- lambda_send_order_email&#45;&gt;secretsmanager_smtp_creds -->
<g id="edge17" class="edge">
<title>lambda_send_order_email&#45;&gt;secretsmanager_smtp_creds</title>
<path fill="none" stroke="blue" d="M940.26,-88.97C922.77,-75.97 898.97,-58.27 879.85,-44.06"/>
<polygon fill="blue" stroke="blue" points="881.82,-41.16 871.71,-38 877.65,-46.78 881.82,-41.16"/>
<text text-anchor="middle" x="952.5" y="-59.8" font-family="Times,serif" font-size="14.00">api_call (7)</text>
</g>
<!-- iam_notification_lambda_role -->
<g id="node18" class="node">
<title>iam_notification_lambda_role</title>
<polygon fill="white" stroke="black" points="1190,-38 973,-38 973,0 1190,0 1190,-38"/>
<text text-anchor="middle" x="1081.5" y="-22.8" font-family="Times,serif" font-size="14.00">IAMRole</text>
<text text-anchor="middle" x="1081.5" y="-7.8" font-family="Times,serif" font-size="14.00">iam&#45;notification&#45;lambda&#45;role</text>
</g>
<!-- lambda_send_order_email&#45;&gt;iam_notification_lambda_role -->
<g id="edge18" class="edge">
<title>lambda_send_order_email&#45;&gt;iam_notification_lambda_role</title>
<path fill="none" stroke="orange" stroke-dasharray="5,2" d="M988.74,-88.97C1006.23,-75.97 1030.03,-58.27 1049.15,-44.06"/>
<polygon fill="orange" stroke="orange" points="1051.35,-46.78 1057.29,-38 1047.18,-41.16 1051.35,-46.78"/>
<text text-anchor="middle" x="1073" y="-59.8" font-family="Times,serif" font-size="14.00">iam_role (9)</text>
</g>
<!-- ec2_payment_svc -->
<g id="node5" class="node">
<title>ec2_payment_svc</title>
<polygon fill="orange" stroke="black" points="1459.5,-595 1323.5,-595 1323.5,-557 1459.5,-557 1459.5,-595"/>
<text text-anchor="middle" x="1391.5" y="-579.8" font-family="Times,serif" font-size="14.00">EC2</text>
<text text-anchor="middle" x="1391.5" y="-564.8" font-family="Times,serif" font-size="14.00">ec2&#45;payment&#45;svc</text>
</g>
<!-- ec2_payment_svc&#45;&gt;ec2_order_api -->
<g id="edge26" class="edge">
<title>ec2_payment_svc&#45;&gt;ec2_order_api</title>
<path fill="none" stroke="red" stroke-width="2" d="M1323.44,-560.39C1299.22,-554.57 1271.91,-547.26 1247.5,-539 1223.47,-530.86 1197.51,-519.9 1176.08,-510.22"/>
<polygon fill="red" stroke="red" stroke-width="2" points="1177.43,-506.99 1166.88,-506.02 1174.53,-513.36 1177.43,-506.99"/>
<text text-anchor="middle" x="1289" y="-527.8" font-family="Times,serif" font-size="14.00">network (7)</text>
</g>
<!-- apigateway_payments -->
<g id="node15" class="node">
<title>apigateway_payments</title>
<polygon fill="lightgreen" stroke="black" points="1376,-506 1203,-506 1203,-468 1376,-468 1376,-506"/>
<text text-anchor="middle" x="1289.5" y="-490.8" font-family="Times,serif" font-size="14.00">APIGateway</text>
<text text-anchor="middle" x="1289.5" y="-475.8" font-family="Times,serif" font-size="14.00">apigateway&#45;payments</text>
</g>
<!-- ec2_payment_svc&#45;&gt;apigateway_payments -->
<g id="edge25" class="edge">
<title>ec2_payment_svc&#45;&gt;apigateway_payments</title>
<path fill="none" stroke="blue" d="M1370.37,-556.97C1355.32,-544.14 1334.92,-526.74 1318.38,-512.63"/>
<polygon fill="blue" stroke="blue" points="1320.49,-509.83 1310.61,-506 1315.94,-515.16 1320.49,-509.83"/>
<text text-anchor="middle" x="1386.5" y="-527.8" font-family="Times,serif" font-size="14.00">api_call (8)</text>
</g>
<!-- iam_payment_service_role -->
<g id="node20" class="node">
<title>iam_payment_service_role</title>
<polygon fill="white" stroke="black" points="1591,-506 1394,-506 1394,-468 1591,-468 1591,-506"/>
<text text-anchor="middle" x="1492.5" y="-490.8" font-family="Times,serif" font-size="14.00">IAMRole</text>
<text text-anchor="middle" x="1492.5" y="-475.8" font-family="Times,serif" font-size="14.00">iam&#45;payment&#45;service&#45;role</text>
</g>
<!-- ec2_payment_svc&#45;&gt;iam_payment_service_role -->
<g id="edge23" class="edge">
<title>ec2_payment_svc&#45;&gt;iam_payment_service_role</title>
<path fill="none" stroke="orange" stroke-dasharray="5,2" d="M1412.43,-556.97C1427.32,-544.14 1447.52,-526.74 1463.9,-512.63"/>
<polygon fill="orange" stroke="orange" points="1466.31,-515.18 1471.6,-506 1461.74,-509.88 1466.31,-515.18"/>
<text text-anchor="middle" x="1491" y="-527.8" font-family="Times,serif" font-size="14.00">iam_role (9)</text>
</g>
<!-- iam_payment_gateway_access -->
<g id="node21" class="node">
<title>iam_payment_gateway_access</title>
<polygon fill="white" stroke="black" points="1834,-506 1609,-506 1609,-468 1834,-468 1834,-506"/>
<text text-anchor="middle" x="1721.5" y="-490.8" font-family="Times,serif" font-size="14.00">IAMRole</text>
<text text-anchor="middle" x="1721.5" y="-475.8" font-family="Times,serif" font-size="14.00">iam&#45;payment&#45;gateway&#45;access</text>
</g>
<!-- ec2_payment_svc&#45;&gt;iam_payment_gateway_access -->
<g id="edge24" class="edge">
<title>ec2_payment_svc&#45;&gt;iam_payment_gateway_access</title>
<path fill="none" stroke="orange" stroke-dasharray="5,2" d="M1459.57,-558.64C1484.16,-552.62 1512.12,-545.65 1537.5,-539 1574.13,-529.41 1614.7,-518.22 1648.41,-508.78"/>
<polygon fill="orange" stroke="orange" points="1649.5,-512.11 1658.18,-506.03 1647.61,-505.37 1649.5,-512.11"/>
<text text-anchor="middle" x="1636" y="-527.8" font-family="Times,serif" font-size="14.00">iam_role (9)</text>
</g>
<!-- sqs_order_fulfillment&#45;&gt;ec2_fulfillment_worker -->
<g id="edge9" class="edge">
<title>sqs_order_fulfillment&#45;&gt;ec2_fulfillment_worker</title>
<path fill="none" stroke="green" stroke-dasharray="1,5" d="M1026.27,-378.88C1024.19,-373.22 1022.07,-366.91 1020.5,-361 1016.52,-346.03 1013.43,-329.03 1011.27,-315.1"/>
<polygon fill="green" stroke="green" points="1014.72,-314.51 1009.79,-305.13 1007.79,-315.54 1014.72,-314.51"/>
<text text-anchor="middle" x="1081" y="-338.3" font-family="Times,serif" font-size="14.00">event_trigger (8)</text>
</g>
<!-- sns_order_notifications&#45;&gt;lambda_send_order_email -->
<g id="edge16" class="edge">
<title>sns_order_notifications&#45;&gt;lambda_send_order_email</title>
<path fill="none" stroke="green" stroke-dasharray="1,5" d="M964.5,-177.97C964.5,-166.19 964.5,-150.56 964.5,-137.16"/>
<polygon fill="green" stroke="green" points="968,-137 964.5,-127 961,-137 968,-137"/>
<text text-anchor="middle" x="1025" y="-148.8" font-family="Times,serif" font-size="14.00">event_trigger (8)</text>
</g>
<!-- secretsmanager_db_creds&#45;&gt;rds_postgres -->
<g id="edge27" class="edge">
<title>secretsmanager_db_creds&#45;&gt;rds_postgres</title>
<path fill="none" stroke="blue" d="M1350.5,-322.89C1350.5,-298.63 1350.5,-255.33 1350.5,-226.63"/>
<polygon fill="blue" stroke="blue" points="1354,-226.42 1350.5,-216.42 1347,-226.42 1354,-226.42"/>
<text text-anchor="middle" x="1389.5" y="-282.3" font-family="Times,serif" font-size="14.00">api_call (9)</text>
</g>
<!-- vpc_main -->
<g id="node23" class="node">
<title>vpc_main</title>
<polygon fill="lightblue" stroke="black" points="1933,-506 1852,-506 1852,-468 1933,-468 1933,-506"/>
<text text-anchor="middle" x="1892.5" y="-490.8" font-family="Times,serif" font-size="14.00">VPC</text>
<text text-anchor="middle" x="1892.5" y="-475.8" font-family="Times,serif" font-size="14.00">vpc&#45;main</text>
</g>
<!-- vpc_payments -->
<g id="node24" class="node">
<title>vpc_payments</title>
<polygon fill="lightblue" stroke="black" points="1950.5,-595 1834.5,-595 1834.5,-557 1950.5,-557 1950.5,-595"/>
<text text-anchor="middle" x="1892.5" y="-579.8" font-family="Times,serif" font-size="14.00">VPC</text>
<text text-anchor="middle" x="1892.5" y="-564.8" font-family="Times,serif" font-size="14.00">vpc&#45;payments</text>
</g>
<!-- vpc_payments&#45;&gt;vpc_main -->
<g id="edge28" class="edge">
<title>vpc_payments&#45;&gt;vpc_main</title>
<path fill="none" stroke="red" stroke-width="2" d="M1892.5,-556.97C1892.5,-545.19 1892.5,-529.56 1892.5,-516.16"/>
<polygon fill="red" stroke="red" stroke-width="2" points="1896,-516 1892.5,-506 1889,-516 1896,-516"/>
<text text-anchor="middle" x="1934" y="-527.8" font-family="Times,serif" font-size="14.00">network (8)</text>
</g>
</g>
</svg>
